<svg id="Capa_1" enable-background="new 0 0 512 512" height="512" viewBox="0 0 512 512" width="512" xmlns="http://www.w3.org/2000/svg"><g><path d="m499.287 171.811v246.825c0 51.566-41.798 93.364-93.364 93.364h-299.846c-51.566 0-93.364-41.798-93.364-93.364v-246.825l243.287-58.467z" fill="#f0f0f9"/><path d="m126.694 233.145c0-31.457 3.749-62.038 10.815-91.325l-124.796 29.991v246.825c0 51.566 41.798 93.364 93.364 93.364h128.113c-68.235-68.152-107.496-166.509-107.496-278.855z" fill="#d7d7f9"/><path d="m499.287 148.241v23.57h-486.574v-23.57c0-51.556 41.798-93.364 93.364-93.364h299.846c51.566 0 93.364 41.808 93.364 93.364z" fill="#fcb062"/><path d="m169.996 54.876h-63.919c-51.566 0-93.364 41.808-93.364 93.364v23.57h118.81c6.599-41.543 19.791-80.889 38.473-116.934z" fill="#fb894c"/><path d="m144.498 0c-21.212 0-38.407 17.196-38.407 38.407v36.529c0 21.212 17.196 38.407 38.407 38.407 21.212 0 38.407-17.196 38.407-38.407v-36.529c0-21.211-17.195-38.407-38.407-38.407z" fill="#fbe381"/><path d="m367.502 0c21.212 0 38.407 17.196 38.407 38.407v36.529c0 21.212-17.195 38.407-38.407 38.407-21.212 0-38.407-17.196-38.407-38.407v-36.529c0-21.211 17.195-38.407 38.407-38.407z" fill="#fbe381"/><path d="m336.553 393.977c-12.929-11.361-23.756-24.91-31.984-40.027-9.683-17.789-28.315-28.861-48.569-28.861-20.253 0-38.886 11.072-48.568 28.861-8.228 15.117-19.055 28.666-31.984 40.027-26.451 23.243-10.974 67.172 24.223 68.226 13.148.393 27.415-2.411 39.993-8.898 10.238-5.279 22.437-5.279 32.675 0 12.541 6.467 26.8 9.292 39.993 8.898 35.195-1.054 50.672-44.983 24.221-68.226z" fill="#505c78"/><ellipse cx="142.329" cy="330.419" fill="#363c58" rx="28.164" ry="38.13" transform="matrix(.906 -.424 .424 .906 -126.713 91.566)"/><ellipse cx="369.671" cy="330.419" fill="#505c78" rx="38.13" ry="28.164" transform="matrix(.424 -.906 .906 .424 -86.352 525.038)"/><ellipse cx="207.844" cy="261.304" fill="#363c58" rx="32.518" ry="44.025" transform="matrix(.987 -.162 .162 .987 -39.688 37.235)"/><ellipse cx="304.156" cy="261.304" fill="#505c78" rx="44.025" ry="32.518" transform="matrix(.162 -.987 .987 .162 -3.087 518.971)"/><path d="m135.999 30.606c0-11.173 3.049-21.629 8.342-30.602-21.139.085-38.25 17.244-38.25 38.403v36.53c0 21.212 17.195 38.407 38.407 38.407 16.33 0 30.271-10.197 35.826-24.567-25.548-7.016-44.325-30.394-44.325-58.171z" fill="#f9d154"/><path d="m359.003 30.607c0-11.173 3.049-21.629 8.342-30.602-21.139.085-38.25 17.244-38.25 38.403v36.53c0 21.212 17.195 38.407 38.407 38.407 16.33 0 30.271-10.197 35.826-24.567-25.548-7.017-44.325-30.395-44.325-58.171z" fill="#f9d154"/><path d="m245.89 375.764c0-17.764 3.063-34.809 8.674-50.651-19.694.51-37.679 11.469-47.132 28.837-8.228 15.117-19.055 28.666-31.984 40.027-26.451 23.243-10.974 67.172 24.223 68.226 13.148.393 27.415-2.411 39.993-8.897 8.088-4.171 17.398-5.032 26.001-2.613-12.583-22.105-19.775-47.676-19.775-74.929z" fill="#363c58"/></g></svg>