<svg id="female" height="512" viewBox="0 0 128 128" width="512" xmlns="http://www.w3.org/2000/svg"><g fill="#673821"><path d="m31 48h54a0 0 0 0 1 0 0v6a14 14 0 0 1 -14 14h-26a14 14 0 0 1 -14-14v-6a0 0 0 0 1 0 0z"/><path d="m68 45h-37v-14a26 26 0 0 1 26-26h1a10 10 0 0 1 10 10z"/><path d="m85 45-27 14v-50a19.6035 19.6035 0 0 1 27 18.1546z"/></g><path d="m58 74c-20.9867 0-38 14.5827-38 32.5714v17.4286h76v-17.4286c0-17.9887-17.0132-32.5714-38-32.5714z" fill="#a7c5ed"/><path d="m20 112h76v12h-76z" fill="#f7b991"/><path d="m58 74a41.2393 41.2393 0 0 0 -27 9.6567v40.3433h54v-40.3433a41.2393 41.2393 0 0 0 -27-9.6567z" fill="#89b2e6"/><path d="m43.5 83v7.5h3v-7.5a11.5 11.5 0 0 1 11.5-11.5 11.5 11.5 0 0 1 11.5 11.5v22.5h3v-22.5a14.5 14.5 0 0 0 -14.5-14.5 14.5 14.5 0 0 0 -14.5 14.5z" fill="#4258b1"/><path d="m34.5 99.5v13.5h3v-13.5a7.5 7.5 0 0 1 7.5-7.5 7.5 7.5 0 0 1 7.5 7.5v13.5h3v-13.5a10.5 10.5 0 0 0 -10.5-10.5 10.5 10.5 0 0 0 -10.5 10.5z" fill="#4258b1"/><path d="m34.5 104h3v8h-3z" fill="#e6e6e6"/><path d="m52.5 104h3v8h-3z" fill="#e6e6e6"/><circle cx="71" cy="106" fill="#464646" r="5"/><circle cx="54" cy="113" fill="#464646" r="3"/><circle cx="54" cy="113" fill="#e6e6e6" r="1.5"/><circle cx="36" cy="113" fill="#464646" r="3"/><circle cx="36" cy="113" fill="#e6e6e6" r="1.5"/><circle cx="71" cy="106" fill="#e6e6e6" r="3.5"/><path d="m58 92-8-17v-7h16v7z" fill="#f7b991"/><path d="m52.353 80 5.647 12 5.647-12z" fill="#fff"/><path d="m77.5 53.25h3a6.0176 6.0176 0 0 0 6-6 6.0176 6.0176 0 0 0 -6-6h-3a6.0176 6.0176 0 0 0 -6 6 6.0176 6.0176 0 0 0 6 6z" fill="#f7b991"/><path d="m38.5 53.25h-3a6.0176 6.0176 0 0 1 -6-6 6.0176 6.0176 0 0 1 6-6h3a6.0176 6.0176 0 0 1 6 6 6.0176 6.0176 0 0 1 -6 6z" fill="#f7b991"/><path d="m58 72a22.0647 22.0647 0 0 1 -22-22v-10c0-12.15 16-12 22-22a22.0647 22.0647 0 0 1 22 22v10a22.0647 22.0647 0 0 1 -22 22z" fill="#fdcba8"/><path d="m81 34h-6a24 24 0 0 1 -24-24h6a24 24 0 0 1 24 24z" fill="#673821"/><path d="m64 60a6 6 0 0 1 -12 0z" fill="#e62626"/><path d="m58 56a2 2 0 0 1 -2-2v-4a2 2 0 0 1 2-2 2 2 0 0 1 2 2v4a2 2 0 0 1 -2 2z" fill="#f7b991"/><g fill="#673821"><circle cx="46" cy="44" r="3"/><circle cx="70" cy="44" r="3"/><path d="m75.0873 38.6941a8.4177 8.4177 0 0 0 -10.1746 0 1.2388 1.2388 0 0 1 -1.5626.0518 1.1267 1.1267 0 0 1 .3636-1.6314 10.4019 10.4019 0 0 1 12.5727 0 1.1268 1.1268 0 0 1 .3635 1.6314 1.2387 1.2387 0 0 1 -1.5626-.0518z"/><path d="m51.0873 38.6941a8.4177 8.4177 0 0 0 -10.1746 0 1.2388 1.2388 0 0 1 -1.5626.0518 1.1268 1.1268 0 0 1 .3635-1.6314 10.4021 10.4021 0 0 1 12.5728 0 1.1268 1.1268 0 0 1 .3635 1.6314 1.2387 1.2387 0 0 1 -1.5626-.0518z"/></g><path d="m107.8333 83.5-3.1666 9.5 2.1111 7.3889c1.5573-1.191 3.0052-12.9896 1.0555-16.8889z" fill="#fa5b5b"/><path d="m92 110c-7.4558 0-13.5 7.447-13.5 14h27c0-6.553-6.0442-14-13.5-14z" fill="#fab141"/><path d="m92 110c-4.3858 0-8.2713 2.584-10.7372 6.04a20.953 20.953 0 0 0 21.4744 0c-2.4659-3.456-6.3514-6.04-10.7372-6.04z" fill="#faa023"/><path d="m76.1667 83.5 3.1666 9.5-2.1111 7.3889c-1.5573-1.191-3.0052-12.9896-1.0555-16.8889z" fill="#fa5b5b"/><path d="m104.6667 93 3.1666-9.5c-2.1469.0133-5.4333 2.61-7.7326 5.3932a17.6985 17.6985 0 0 0 -16.2014 0c-2.2993-2.7832-5.5857-5.3799-7.7326-5.3932l3.1666 9.5c-2.1111 3.1667-4.2222 9.7951-6.3333 12.5 0 0 6.3333 11 19 11s19-11 19-11c-2.1111-2.7049-4.2222-9.3333-6.3333-12.5z" fill="#fab141"/><path d="m90 109.5026c0 1.1046 2 2 2 2s2-.8954 2-2-.8954-1-2-1-2-.1045-2 1z" fill="#fa5b5b"/><circle cx="99" cy="104" fill="#673821" r="2"/><circle cx="85" cy="104" fill="#673821" r="2"/><path d="m36.2113 53a21.9934 21.9934 0 0 0 43.5774 0l-7.1568 1.8213a11.4705 11.4705 0 0 1 -8.73-1.28 11.47 11.47 0 0 0 -11.803 0 11.4705 11.4705 0 0 1 -8.73 1.28z" fill="#fff"/></svg>