<svg id="Capa_1" enable-background="new 0 0 496.357 496.357" height="512" viewBox="0 0 496.357 496.357" width="512" xmlns="http://www.w3.org/2000/svg"><g><path d="m320.369 496.356c.681-5.562 1.055-11.23 1.055-16.997 0-70.072-51.914-126.877-115.954-126.877-64.039 0-115.953 56.805-115.953 126.877 0 5.766.373 11.435 1.055 16.997z" fill="#e9a385"/><path d="m256.533 496.356c.846-6.754 1.315-13.767 1.315-20.983 0-52.332-23.45-94.755-52.378-94.755s-52.377 42.423-52.377 94.755c0 7.217.469 14.229 1.314 20.983z" fill="#f5dbb6"/><path d="m320.369 496.356c.681-5.562 1.055-11.23 1.055-16.997 0-70.072-51.914-126.877-115.954-126.877-3.286 0-6.538.158-9.755.451 47.395 3.773 84.206 31.604 84.206 65.396 0 36.366-42.624 65.847-95.202 65.847-41.329 0-76.493-18.219-89.654-43.674-3.597 12.247-5.548 25.302-5.548 38.858 0 5.766.373 11.435 1.055 16.997h229.797z" fill="#d57b84"/><path d="m257.246 460.979c-17.462 14.192-43.473 23.198-72.528 23.198-11.06 0-21.671-1.316-31.544-3.715.165 5.432.587 10.74 1.232 15.895h102.126c.845-6.754 1.315-13.767 1.315-20.983 0-4.894-.205-9.701-.601-14.395z" fill="#dca3b4"/><path d="m284.883 215.204c1.637-41.255-2.166-75.911-23.087-107.752-5.368-8.17-17.612-7.289-21.7 1.59l-31.544 54.589c-1.89 4.106-6.246 6.463-10.724 5.848-16.304-2.24-33.053-1.36-49.586 3.273-17.407 4.878-33.056 13.493-46.582 24.783-3.498 2.92-13.594 1.091-18.133.641l-62.304-9.44c-8.811-1.259-20.083.176-19.367 9.932 2.565 34.93 25.306 48.784 48.623 83.496-6.317 26.066-6.475 53.674.739 79.418 18 64.23 148.783 65.255 165.685 60.518 16.903-4.737 126.563-73.144 108.563-137.374-7.337-26.193-21.745-50.198-40.583-69.522z" fill="#e9a385"/><path d="m300.124 296.464c-12.734-5.944-27.788-3.009-40.289 6.335-10.945 8.181-26.407 7.084-36.06-2.587-10.109-10.128-24.858-18.091-44.695-12.532-20.132 5.642-28.825 20.537-32.389 34.713-3.356 13.348-16.024 21.927-29.719 20.547-15.642-1.577-30.152 3.733-37.989 15.497-7.129 10.702-7.183 24.439-1.506 37.241 1.893 1.295 3.855 2.533 5.878 3.718 0 0 6.379 3.401 16.652 8.124 45.181 18.318 105.762 17.703 116.9 14.582 12.27-3.439 73.412-40.434 99.123-85.025 1.709-2.964 3.26-5.961 4.631-8.985.044-.097.089-.195.133-.293-1.738-14.019-8.936-25.858-20.67-31.335z" fill="#f5dbb6"/><g><path d="m246.834 295.809c-3.322 0-6.605-.853-9.58-2.524-4.565-2.567-7.858-6.759-9.271-11.802-.895-3.19.967-6.502 4.158-7.396 3.191-.892 6.502.968 7.396 4.158.548 1.957 1.826 3.583 3.598 4.579s3.826 1.243 5.782.694c4.039-1.132 6.404-5.34 5.273-9.379-.895-3.19.967-6.502 4.158-7.396 3.189-.893 6.503.968 7.396 4.158 1.413 5.043.778 10.335-1.788 14.9s-6.758 7.858-11.801 9.271c-1.757.493-3.545.737-5.321.737z" fill="#be545e"/></g><path d="m198.936 308.299c2.117 7.555-6.997 16.715-9.846 17.513s-15.396-2.291-17.513-9.846 3.395-11.457 10.95-13.574 14.292-1.648 16.409 5.907z" fill="#d58a9c"/><g><path d="m172.268 351.37c-2.623 0-5.031-1.733-5.774-4.383-.895-3.19.967-6.502 4.158-7.397 8.139-2.281 12.906-10.76 10.625-18.898-.894-3.191.968-6.503 4.158-7.397 3.19-.892 6.503.968 7.396 4.158 4.066 14.51-4.431 29.624-18.941 33.691-.541.153-1.086.226-1.622.226z" fill="#d58a9c"/></g><g><path d="m207.875 340.573c-11.946 0-22.947-7.903-26.325-19.957-.894-3.19.967-6.502 4.158-7.397 3.189-.893 6.503.967 7.396 4.158 2.281 8.14 10.758 12.906 18.897 10.624 3.189-.892 6.502.968 7.396 4.158.894 3.191-.967 6.502-4.158 7.397-2.455.689-4.929 1.017-7.364 1.017z" fill="#d58a9c"/></g><ellipse cx="112.765" cy="269.293" fill="#f5dbb6" rx="18.564" ry="13.131" transform="matrix(.963 -.27 .27 .963 -68.485 40.419)"/><path d="m242.804 232.851c1.957 6.983-4.46 14.887-14.332 17.653-9.872 2.767-19.462-.651-21.419-7.634s4.46-14.887 14.332-17.653c9.873-2.767 19.462.651 21.419 7.634z" fill="#f5dbb6"/><g><path d="m63.727 254.98c-1.516 0-3.032-.57-4.2-1.716-2.366-2.319-2.404-6.118-.084-8.484l4.463-4.553c-12.883-4.704-26.011-13.146-26.714-13.601-2.782-1.8-3.577-5.513-1.778-8.295s5.513-3.579 8.296-1.78c5.539 3.579 22.172 13.186 32.477 14.625 2.244.313 4.119 1.864 4.85 4.008.73 2.145.19 4.518-1.395 6.135l-11.629 11.861c-1.176 1.198-2.73 1.8-4.286 1.8z" fill="#be545e"/></g><path d="m284.883 215.204c1.637-41.255-2.208-75.911-23.128-107.752-5.368-8.17-17.612-7.29-21.7 1.59l-5.445 9.495c16.081 26.506 18.618 55.191 17.278 88.969 16.321 16.742 28.804 37.541 35.165 60.236 15.596 55.65-79.416 114.919-94.06 119.023-14.645 4.104-127.956 3.216-143.552-52.434-1.63-5.818-2.816-11.746-3.596-17.731-.43 15.18 1.285 30.381 5.377 44.983 18 64.23 148.783 65.255 165.685 60.518 16.903-4.737 126.563-73.144 108.563-137.374-7.341-26.194-21.749-50.199-40.587-69.523z" fill="#d57b84"/><g><path d="m254.663 197.642c-.117 0-.235-.003-.355-.01l-16.583-.964c-2.261-.132-4.256-1.525-5.157-3.604s-.555-4.487.896-6.228c6.661-7.994 12.516-26.287 14.21-32.661.852-3.202 4.137-5.112 7.338-4.258 3.202.85 5.109 4.134 4.261 7.336-.215.81-4.259 15.885-10.634 28.027l6.366.37c3.308.192 5.834 3.03 5.642 6.339-.185 3.191-2.83 5.653-5.984 5.653z" fill="#be545e"/></g><path d="m316.029 337.076c1.709-2.964 3.26-5.961 4.631-8.985.044-.097.089-.195.133-.293-1.738-14.018-8.935-25.858-20.67-31.335-4.151-1.938-8.55-2.916-13.026-3.052-11.733 46.876-81.709 89.88-94.106 93.354-11.086 3.107-78.705 3.345-117.682-20.86-3.183 9.239-2.262 19.787 2.167 29.772 1.893 1.295 3.855 2.533 5.878 3.718 0 0 6.379 3.401 16.652 8.124 45.181 18.318 105.762 17.703 116.9 14.582 12.271-3.438 73.413-40.434 99.123-85.025z" fill="#dca3b4"/><path d="m130.234 311.442c-.015 8.26-6.723 14.945-14.984 14.93-8.26-.015-14.945-6.723-14.93-14.983s6.723-14.945 14.983-14.93c8.261.015 14.945 6.723 14.931 14.983z" fill="#be545e"/><path d="m320.417 56.792c0 19.202 11.755 35.652 28.459 42.565v158.647c19.435 0 35.191-15.755 35.191-35.191v-123.456c16.703-6.913 28.459-23.363 28.458-42.565 0-25.435-20.619-46.054-46.054-46.054-25.435-.001-46.054 20.618-46.054 46.054zm46.054-24.059c13.287 0 24.058 10.771 24.058 24.058s-10.771 24.058-24.058 24.058-24.058-10.771-24.058-24.058c0-13.286 10.771-24.058 24.058-24.058z" fill="#c3b3ec"/><path d="m320.417 56.792c0 19.202 11.755 35.652 28.459 42.565v6.771h35.191v-6.771c16.703-6.913 28.459-23.363 28.459-42.565 0-25.435-20.619-46.054-46.054-46.054-25.436-.001-46.055 20.618-46.055 46.054zm46.054-24.059c13.287 0 24.058 10.771 24.058 24.058s-10.771 24.058-24.058 24.058-24.058-10.771-24.058-24.058c0-13.286 10.771-24.058 24.058-24.058z" fill="#d88aba"/><path d="m245.5 156.821h160.41c6.913 16.704 23.363 28.458 42.565 28.458 25.435 0 46.054-20.619 46.054-46.054s-20.619-46.054-46.054-46.054c-19.202 0-35.653 11.755-42.565 28.459h-125.22c-19.435 0-35.19 15.756-35.19 35.191zm202.976-41.653c13.287 0 24.058 10.771 24.058 24.058s-10.771 24.058-24.058 24.058-24.058-10.771-24.058-24.058 10.771-24.058 24.058-24.058z" fill="#c3b3ec"/><path d="m397.263 121.63v35.191h8.647c6.913 16.704 23.363 28.459 42.565 28.459 25.435 0 46.054-20.619 46.054-46.054s-20.619-46.054-46.054-46.054c-19.202 0-35.653 11.755-42.565 28.459h-8.647zm51.213-6.462c13.287 0 24.058 10.771 24.058 24.058s-10.771 24.058-24.058 24.058-24.058-10.771-24.058-24.058 10.771-24.058 24.058-24.058z" fill="#d88aba"/><g><path d="m379.943 162.821h-26.763c-3.314 0-6-2.687-6-6 0-3.314 2.686-6 6-6h26.763c3.314 0 6 2.686 6 6s-2.686 6-6 6z" fill="#a171e3"/></g><g><path d="m379.943 127.63h-26.763c-3.314 0-6-2.687-6-6s2.686-6 6-6h26.763c3.314 0 6 2.687 6 6s-2.686 6-6 6z" fill="#a171e3"/></g><path d="m362.148 134.976c2.276-2.276 5.967-2.276 8.243 0s2.276 5.967 0 8.243-5.967 2.276-8.243 0-2.276-5.967 0-8.243z" fill="#a171e3"/><path d="m375.109 298.29 22.931-24.354s48.675 28.152 58.821 31.732c10.146 3.581-11.609 12.383-29.41 8.514 0 0 22.687 29.345 20.897 31.732s-33.409-10.858-33.409-10.858-4.859 17.427-6.894 17.617c-2.142.2-32.936-54.383-32.936-54.383z" fill="#e9a385"/><g><path d="m155.075 220.391c-3.814 0-7.457-2.194-9.124-5.898-2.267-5.036-.022-10.956 5.014-13.224 5.082-2.287 9.817-4.004 16.407-4.944 5.463-.783 10.532 3.019 11.313 8.486s-3.018 10.532-8.486 11.312c-3.842.549-6.624 1.402-11.024 3.384-1.333.6-2.728.884-4.1.884z" fill="#fff"/></g><g><path d="m128.733 234.32c-2.787 0-5.56-1.158-7.537-3.423-3.632-4.16-3.205-10.477.956-14.11.978-.854 2.059-1.719 3.304-2.645 4.432-3.292 10.697-2.371 13.991 2.061s2.372 10.696-2.061 13.991c-.821.609-1.501 1.152-2.081 1.658-1.895 1.656-4.239 2.468-6.572 2.468z" fill="#fff"/></g><ellipse cx="56.398" cy="117.956" fill="#e9a385" rx="17.937" ry="17.937" transform="matrix(.23 -.973 .973 .23 -71.36 145.745)"/><path d="m167.242 2.447 8.214 23.098c.352.989 1.048 1.773 1.927 2.168l20.521 9.246c2.899 1.306 2.899 5.925 0 7.232l-20.521 9.246c-.879.396-1.575 1.18-1.927 2.168l-8.214 23.098c-1.161 3.263-5.265 3.263-6.425 0l-8.214-23.098c-.352-.989-1.048-1.773-1.927-2.168l-20.521-9.246c-2.899-1.306-2.899-5.925 0-7.232l20.521-9.246c.879-.396 1.575-1.18 1.927-2.168l8.214-23.098c1.16-3.263 5.264-3.263 6.425 0z" fill="#efc5b4"/><path d="m423.546 398.905 6.093 17.133c.261.734.777 1.315 1.429 1.609l15.222 6.858c2.151.969 2.151 4.395 0 5.364l-15.222 6.858c-.652.294-1.168.875-1.429 1.609l-6.093 17.133c-.861 2.421-3.905 2.421-4.766 0l-6.093-17.133c-.261-.734-.777-1.315-1.429-1.609l-15.222-6.858c-2.151-.969-2.151-4.395 0-5.364l15.222-6.858c.652-.294 1.168-.875 1.429-1.609l6.093-17.133c.861-2.42 3.905-2.42 4.766 0z" fill="#efc5b4"/><circle cx="61.817" cy="45.042" fill="#e9a385" r="7.737"/></g></svg>