<svg id="Layer_1" height="512" viewBox="0 0 256 256" width="512" xmlns="http://www.w3.org/2000/svg"><g><g><g><g><g><g><g><path d="m151.016 212.893-14.937-3.883c-5.309-1.38-10.849-1.38-16.157 0l-14.938 3.883c-21.57 5.606-42.348-11.901-42.348-35.682 0-30.392 29.264-70.033 65.364-70.033 36.1 0 65.364 39.641 65.364 70.033 0 23.78-20.778 41.288-42.348 35.682z" fill="#ffa91a"/></g></g></g></g><g><g><g><path d="m71.11 191.79c-.81 0-1.54-.48-1.85-1.23-.42-1.02.07-2.189 1.08-2.609 1-.42 2.2.09 2.61 1.069.01.011.01.011.01.011.42 1.02-.07 2.189-1.08 2.609-.25.1-.51.15-.77.15zm-2.12-7.69c-.98 0-1.83-.729-1.98-1.71-.25-1.71-.37-3.45-.37-5.18.01-6.95 1.7-14.69 4.9-22.36 3.18-7.63 7.77-15.04 13.27-21.439 12.36-14.33 27.7-22.23 43.19-22.23s30.83 7.9 43.189 22.23c.351.399.521.92.48 1.449-.04.54-.28 1.021-.69 1.37-.8.7-2.13.601-2.819-.21-11.601-13.439-25.86-20.84-40.15-20.84h-.02c-14.29 0-28.55 7.4-40.15 20.84-10.64 12.3-17.23 28.08-17.2 41.19 0 1.53.11 3.08.33 4.6.08.53-.05 1.061-.37 1.48-.32.43-.79.71-1.32.79-.09.01-.19.02-.29.02z" fill="#ffc91d"/></g></g></g><g><g><path d="m164.955 121.662c11.395 13.575 18.409 30.67 18.409 45.548 0 23.781-20.778 41.289-42.348 35.682l-14.937-3.883c-5.309-1.38-10.849-1.38-16.157 0l-14.938 3.883c-9.366 2.434-18.583.511-26.014-4.392 7.784 11.677 21.725 18.106 36.014 14.392l14.938-3.883c5.308-1.38 10.848-1.38 16.157 0l14.937 3.883c21.57 5.606 42.348-11.901 42.348-35.682 0-18.845-11.252-41.246-28.409-55.548z" fill="#f79219"/></g></g><g><g><path d="m167.587 123.961c12.784 13.957 20.777 32.366 20.777 48.25 0 23.781-20.778 41.289-42.348 35.682l-14.937-3.883c-5.309-1.38-10.849-1.38-16.157 0l-14.938 3.883c-10.606 2.757-21.021-.075-28.868-6.494 8.043 9.811 20.811 14.887 33.868 11.494l14.938-3.883c5.308-1.38 10.848-1.38 16.157 0l14.937 3.883c21.57 5.606 42.348-11.901 42.348-35.682 0-17.865-10.111-38.924-25.777-53.25z" fill="#ef7816"/></g></g><g><g><g><g><g><g><g><g><g><path d="m69.535 93.642c7.636 13.544 8.316 26.634-1.221 32.741-9.537 6.108-25.924 2.077-33.561-11.467-7.636-13.544-3.63-31.472 5.907-37.579 9.537-6.108 21.239 2.76 28.875 16.305z" fill="#ffa91a"/></g></g></g></g><g><g><path d="m69.535 93.642c-3.727-6.611-8.423-12.108-13.363-15.293 1.187 1.658 2.313 3.431 3.363 5.293 7.636 13.544 8.316 26.634-1.221 32.741-6.264 4.012-15.484 3.65-23.239-.91 7.767 13.097 23.834 16.934 33.239 10.91 9.537-6.107 8.857-19.197 1.221-32.741z" fill="#f79219"/></g></g><g><g><g><g><path d="m119.043 66.319c3.538 15.14.524 27.898-10.341 31.089-10.866 3.193-25.468-5.266-29.007-20.407-3.538-15.14 5.329-31.229 16.195-34.421s19.616 8.598 23.153 23.739z" fill="#ffa91a"/></g></g></g></g><g><g><path d="m119.043 66.319c-2.599-11.126-8.014-20.443-15.014-23.335 2.154 3.82 3.86 8.399 5.014 13.335 3.538 15.14.524 27.897-10.341 31.089-4.974 1.462-10.731.481-15.852-2.464 5.851 10.015 17.071 15.044 25.852 12.464 10.865-3.191 13.879-15.948 10.341-31.089z" fill="#f79219"/></g></g></g></g></g></g><g><g><g><g><g><g><g><g><path d="m186.465 93.642c-7.636 13.544-8.316 26.634 1.221 32.741 9.537 6.108 25.924 2.077 33.561-11.467 7.636-13.544 3.63-31.472-5.907-37.579-9.537-6.108-21.239 2.76-28.875 16.305z" fill="#ffa91a"/></g></g></g></g><g><g><path d="m215.34 77.337c-.948-.608-1.919-1.066-2.904-1.388 3.806 8.196 4.079 19.624-1.189 28.967-6.712 11.904-20.184 16.459-29.823 13.241 1.026 3.36 3.072 6.184 6.262 8.227 9.537 6.108 25.924 2.077 33.561-11.467 7.636-13.545 3.63-31.473-5.907-37.58z" fill="#f79219"/></g></g><g><g><g><g><path d="m136.957 66.319c-3.538 15.14-.524 27.898 10.341 31.089 10.866 3.193 25.468-5.266 29.007-20.407 3.538-15.14-5.329-31.229-16.195-34.421s-19.616 8.598-23.153 23.739z" fill="#ffa91a"/></g></g></g></g><g><g><path d="m162.694 43.597c3.774 6.58 5.544 15.133 3.611 23.404-3.538 15.141-18.141 23.6-29.007 20.407-.082-.024-.163-.049-.245-.074 1.775 4.97 5.145 8.576 10.245 10.074 10.866 3.193 25.469-5.266 29.007-20.407 3.252-13.919-3.98-28.64-13.611-33.404z" fill="#f79219"/></g></g></g></g></g></g></g></g></g><g><g><g><g><path d="m141.154 132.043h16.251v20.161h-16.251z" fill="#d1d3d4" transform="matrix(-.707 .707 -.707 -.707 355.333 137.062)"/></g></g></g><g><g><g><path d="m142.313 170.046 9.434-9.434c1.251-1.251 1.251-3.279 0-4.53l-16.426-16.427c-1.251-1.251-3.279-1.251-4.53 0l-30.391 30.391c11.574 11.575 30.339 11.575 41.913 0z" fill="#e6e7e8"/></g></g></g><g><g><g><path d="m151.747 156.082-10-10c1.251 1.251 1.251 3.279 0 4.53l-9.434 9.434c-7.953 7.953-19.301 10.441-29.378 7.464l-2.535 2.536c11.574 11.574 30.34 11.574 41.914 0l9.434-9.434c1.25-1.25 1.25-3.279-.001-4.53z" fill="#fff"/></g></g></g><g><g><g><path d="m164.123 145.476c1.201 1.201 3.132 1.256 4.399.124l67.735-60.482c8.277-8.277 8.277-21.695 0-29.972-8.277-8.277-21.696-8.277-29.972 0l-60.482 67.735c-1.132 1.267-1.077 3.197.124 4.399z" fill="#478cf7"/></g></g></g><g><g><g><path d="m236.257 55.146c-1.753-1.753-3.737-3.135-5.855-4.146 3.76 7.877 2.378 17.594-4.145 24.117l-67.735 60.483c-1.267 1.132-3.198 1.077-4.399-.124l-8.197-8.197h.001l18.197 18.197c1.201 1.201 3.132 1.256 4.399.124l67.735-60.482c8.276-8.276 8.276-21.695-.001-29.972z" fill="#377de2"/></g></g></g></g></g></svg>